<svg width="922" height="306" viewBox="0 0 922 306" fill="none" xmlns="http://www.w3.org/2000/svg">
<path d="M92.7922 303.377C83.6975 300.467 76.8534 296.215 70.3314 289.423C53.9682 272.382 51.0728 248.407 62.7602 226.73C74.0394 205.809 93.979 188.429 116.827 179.602C126.911 175.707 132.465 174.938 139.072 176.523C149.896 179.12 157.976 187.272 161.425 199.078C169.233 225.806 166.624 253.614 154.067 277.511C147.387 290.223 134.916 300.265 121.313 303.887C113.876 305.867 99.786 305.615 92.7922 303.377ZM116.872 291.418C132.742 287.284 141.417 278.195 148.022 258.782C153.353 243.11 153.981 220.995 149.534 205.486C146.937 196.429 144.609 192.85 139.841 190.588C134.611 188.106 129.34 188.564 120.127 192.302C98.2297 201.184 77.4753 221.641 70.6507 241.068C68.1153 248.286 68.3491 259.999 71.1775 267.459C73.7561 274.26 81.649 283.5 88.1179 287.291C93.0321 290.171 102.016 292.792 107.312 292.89C109.317 292.928 113.619 292.265 116.872 291.418ZM199.671 225.902C187.982 223.151 177.026 214.547 172.252 204.37C169.977 199.522 169.593 197.286 169.593 188.916C169.593 179.992 169.862 178.643 172.65 173.609C177.851 164.22 189.884 155.56 205.224 150.168C210.962 148.151 215.543 147.37 223.674 147.023C234.222 146.573 234.621 146.638 239.764 149.656C245.797 153.196 250.746 159.908 253.055 167.681C255.064 174.447 255.042 191.096 253.016 197.92C249.378 210.172 238.456 221.125 226.058 224.954C218.896 227.166 206.878 227.598 199.671 225.902ZM225.981 212.626C232.171 209.717 237.837 204.13 240.553 198.259C242.333 194.412 242.731 191.575 242.731 182.735C242.731 173.417 242.39 171.228 240.273 166.925C238.895 164.127 236.404 161.072 234.607 159.976C222.275 152.456 185.533 167.926 181.536 182.322C177.528 196.758 185.833 209.779 201.969 214.357C208.551 216.224 220.097 215.392 225.981 212.626ZM23.3159 216.377C6.2607 211.922 -1.92828 200.284 1.22841 184.986C4.6083 168.608 17.4099 157.388 34.0786 156.195C50.1108 155.048 73.2507 166.612 79.6072 178.948C88.7995 196.787 68.0774 216.004 38.2526 217.298C32.1455 217.563 26.5302 217.217 23.3159 216.377ZM53.3858 203.324C60.5192 200.869 68.1787 194.793 70.1552 190.021C71.2763 187.314 71.1579 186.489 69.192 183.308C63.8194 174.615 45.1628 166.388 33.5418 167.588C21.8484 168.795 14.1005 176.392 12.0231 188.688C10.7284 196.351 14.945 201.964 24.3244 205.063C30.1951 207.002 45.3299 206.097 53.3858 203.324ZM335.546 206.846C324.952 204.283 316.573 199.436 308.001 190.914C292.046 175.05 286.175 154.228 291.636 132.873C296.106 115.395 307.849 100.899 323.699 93.2897C334.182 88.2577 340.956 86.9343 356.233 86.9343H367.89V95.5915V104.249L353.726 104.605C340.307 104.943 339.198 105.134 332.636 108.242C323.066 112.776 316.155 119.536 311.536 128.882C308.346 135.336 307.699 137.817 307.32 145.036C306.558 159.556 311.105 170.56 321.902 180.32C328.585 186.362 336.405 189.995 344.258 190.707L350.378 191.262V165.366V139.47H359.134H367.89V173.979V208.488L354.756 208.402C347.213 208.353 339.036 207.691 335.546 206.846ZM382.312 147.711V86.9343H395.653C402.99 86.9343 411.45 87.4559 414.452 88.0934C427.8 90.9277 440.962 101.288 447.004 113.717C455.965 132.151 452.435 153.581 438.009 168.324L432.108 174.356L438.628 190.618C442.215 199.562 445.149 207.242 445.149 207.684C445.149 208.126 440.796 208.488 435.475 208.488H425.8L420.382 194.987L414.964 181.486L411.257 182.099C409.218 182.436 405.811 182.718 403.687 182.724L399.824 182.731V195.608V208.484H391.068H382.312V147.711ZM417.08 162.263C423.751 158.86 428.314 154.301 431.459 147.898C435.457 139.757 435.468 129.039 431.485 121.316C426.236 111.136 415.65 104.446 404.79 104.446H399.823V134.976V165.505L406.292 164.986C409.919 164.695 414.658 163.499 417.08 162.263ZM458.77 207.201C459.018 206.492 466.832 179.146 476.135 146.431L493.049 86.9484L497.399 86.9439L501.748 86.9394L503.32 92.3475C504.185 95.3219 512.014 122.672 520.718 153.124L536.544 208.493H527.898C520.589 208.493 519.156 208.215 518.628 206.691C516.339 200.084 511.308 191.213 507.943 187.848C503.715 183.619 498.746 181.992 493.829 183.226C489.402 184.337 483.02 191.848 479.106 200.554L475.538 208.491L466.929 208.492C460.488 208.493 458.433 208.169 458.77 207.205V207.201ZM491.948 170.691C496.388 169.084 502.453 169.631 507.214 172.067C508.772 172.865 510.046 173.199 510.046 172.809C510.046 171.419 498.363 132.759 497.71 131.991C497.345 131.56 495.797 135.5 494.271 140.747C492.746 145.994 489.91 155.538 487.971 161.957C485.024 171.707 484.728 173.506 486.172 172.892C487.122 172.488 489.721 171.497 491.948 170.691ZM546.101 147.711V86.9343H550.668H555.235L576.936 121.65L598.637 156.367V121.65V86.9343H607.393H616.149V147.711V208.488H611.764H607.38L585.754 173.857L564.128 139.226L563.857 173.857L563.586 208.488H554.843H546.101L546.101 147.711ZM679.791 206.888C666.413 203.645 652.836 194.056 644.676 182.087C628.215 157.944 631.189 125.642 651.768 105.035C662.874 93.9149 675.592 88.2061 691.463 87.2174C720.107 85.433 745.494 103.603 753.737 131.788C756.52 141.303 756.1 156.395 752.764 166.768C746.526 186.164 729.223 202.322 709.783 206.904C701.696 208.811 687.689 208.802 679.791 206.888ZM713.262 187.156C726.728 180.777 735.872 168.381 737.99 153.631C740.77 134.266 730.297 116.033 711.387 107.314C707.052 105.316 704.577 104.961 694.953 104.961C684.321 104.961 683.188 105.167 676.601 108.286C668.142 112.293 659.785 120.433 655.829 128.519C644.469 151.738 655.955 180.096 680.311 188.962C684.468 190.475 688.01 190.865 695.983 190.689C705.182 190.486 707.03 190.107 713.262 187.156ZM772.726 147.711V86.9343H781.482H790.238V138.935V190.935L812.128 191.213L834.018 191.492L834.318 199.99L834.617 208.488H803.672H772.727L772.726 147.711ZM843.838 208.231C843.857 208.089 851.638 180.855 861.131 147.711L878.391 87.4494H882.88H887.368L902.677 141.016C911.096 170.477 918.879 197.728 919.971 201.574L921.957 208.566L913.213 208.27L904.47 207.974L901.962 201.793C891.622 176.306 874.688 176.3 863.859 201.778L861.007 208.487H852.406C847.675 208.487 843.82 208.372 843.838 208.231ZM882.949 169.964C886.332 169.964 889.964 170.68 891.963 171.741C893.804 172.718 895.311 173.158 895.313 172.718C895.32 170.892 883.477 132.259 882.912 132.259C882.327 132.259 870.48 171.04 870.553 172.718C870.572 173.157 872.094 172.718 873.936 171.741C875.934 170.68 879.566 169.964 882.949 169.964ZM78.544 163.577C60.9929 159.738 35.6976 145.3 26.7996 134.043C11.9212 115.22 9.88829 93.8122 20.8653 71.5497C26.2057 60.7189 38.5795 47.7315 47.7053 43.3788C71.633 31.9661 94.7983 42.0235 108.239 69.6601C118.574 90.9118 123.203 109.618 123.223 130.222C123.238 143.907 123.178 144.272 119.843 151.044C116.234 158.375 113.134 161.246 106.179 163.7C100.814 165.593 87.4872 165.534 78.544 163.577ZM102.224 154.779C110.905 151.872 114.033 144.966 113.822 129.169C113.501 105.055 102.227 72.1788 89.8708 59.3245C79.2874 48.3145 65.5761 45.2899 53.3546 51.2693C41.5508 57.0444 30.4969 70.1927 25.829 84.0103C24.0205 89.3635 23.6938 92.3234 24.0153 100.441C24.3689 109.371 24.7818 111.1 28.2205 118.058C32.9251 127.577 40.4267 135.254 51.3418 141.719C70.637 153.147 91.2782 158.445 102.224 154.779ZM136.167 154.568C130.04 136.155 127.369 103.292 130.356 83.0564C136.39 42.1749 156.104 12.0101 182.87 2.70161C189.364 0.443223 191.382 0.216093 201.002 0.660342C209.08 1.03312 213.578 1.81104 218.725 3.72469C251.234 15.8115 273.325 45.3396 269.145 71.1178C266.668 86.39 256.474 103.904 241.324 118.916C225.921 134.179 208.008 144.848 185.292 152.289C172.425 156.504 150.645 161.103 143.548 161.103H138.342L136.167 154.568ZM173.025 141.988C208.681 132.309 237.273 111.035 250.423 84.3995C255.781 73.5465 257.103 67.2604 255.666 59.4619C253.881 49.7784 249.926 42.969 240.756 33.7929C231.753 24.7842 222.557 18.9773 212.007 15.64C202.811 12.7309 190.166 13.4038 182.643 17.2026C157.111 30.0955 140.628 68.524 142.61 110.536C143.16 122.192 146.356 144.085 147.863 146.524C148.571 147.67 159.065 145.778 173.025 141.988Z" fill="white"/>
</svg>
